<svg width="70" height="70" viewBox="0 0 70 70" fill="none" xmlns="http://www.w3.org/2000/svg">
<rect width="70" height="70" rx="5" fill="#E4E3E3"/>
<path d="M25.1116 46.5052C25.9428 47.2325 27.2064 47.1483 27.9337 46.317C28.6611 45.4857 28.5769 44.2222 27.7456 43.4948L25.1116 46.5052ZM15 35L13.683 33.4948C13.249 33.8746 13 34.4233 13 35C13 35.5767 13.249 36.1254 13.683 36.5052L15 35ZM27.7456 26.5052C28.5769 25.7778 28.6611 24.5143 27.9337 23.683C27.2064 22.8517 25.9428 22.7675 25.1116 23.4948L27.7456 26.5052ZM42.2544 43.4948C41.4231 44.2222 41.3389 45.4857 42.0663 46.317C42.7936 47.1483 44.0572 47.2325 44.8884 46.5052L42.2544 43.4948ZM55 35L56.317 36.5052C56.751 36.1254 57 35.5767 57 35C57 34.4233 56.751 33.8746 56.317 33.4948L55 35ZM44.8884 23.4948C44.0572 22.7675 42.7936 22.8517 42.0663 23.683C41.3389 24.5143 41.4231 25.7778 42.2544 26.5052L44.8884 23.4948ZM28.5357 35C28.5357 34.4872 28.9515 34.0714 29.4643 34.0714V38.0714C31.1606 38.0714 32.5357 36.6963 32.5357 35H28.5357ZM29.4643 34.0714C29.9771 34.0714 30.3929 34.4872 30.3929 35H26.3929C26.3929 36.6963 27.768 38.0714 29.4643 38.0714V34.0714ZM30.3929 35C30.3929 35.5128 29.9771 35.9286 29.4643 35.9286V31.9286C27.768 31.9286 26.3929 33.3037 26.3929 35H30.3929ZM29.4643 35.9286C28.9515 35.9286 28.5357 35.5128 28.5357 35H32.5357C32.5357 33.3037 31.1606 31.9286 29.4643 31.9286V35.9286ZM34.0714 35C34.0714 34.4872 34.4872 34.0714 35 34.0714V38.0714C36.6963 38.0714 38.0714 36.6963 38.0714 35H34.0714ZM35 34.0714C35.5128 34.0714 35.9286 34.4872 35.9286 35H31.9286C31.9286 36.6963 33.3037 38.0714 35 38.0714V34.0714ZM35.9286 35C35.9286 35.5128 35.5128 35.9286 35 35.9286V31.9286C33.3037 31.9286 31.9286 33.3037 31.9286 35H35.9286ZM35 35.9286C34.4872 35.9286 34.0714 35.5128 34.0714 35H38.0714C38.0714 33.3037 36.6963 31.9286 35 31.9286V35.9286ZM39.6071 35C39.6071 34.4872 40.0229 34.0714 40.5357 34.0714V38.0714C42.232 38.0714 43.6071 36.6963 43.6071 35H39.6071ZM40.5357 34.0714C41.0486 34.0714 41.4643 34.4872 41.4643 35H37.4643C37.4643 36.6963 38.8394 38.0714 40.5357 38.0714V34.0714ZM41.4643 35C41.4643 35.5128 41.0486 35.9286 40.5357 35.9286V31.9286C38.8394 31.9286 37.4643 33.3037 37.4643 35H41.4643ZM40.5357 35.9286C40.0229 35.9286 39.6071 35.5128 39.6071 35H43.6071C43.6071 33.3037 42.232 31.9286 40.5357 31.9286V35.9286ZM27.7456 43.4948L16.317 33.4948L13.683 36.5052L25.1116 46.5052L27.7456 43.4948ZM16.317 36.5052L27.7456 26.5052L25.1116 23.4948L13.683 33.4948L16.317 36.5052ZM44.8884 46.5052L56.317 36.5052L53.683 33.4948L42.2544 43.4948L44.8884 46.5052ZM56.317 33.4948L44.8884 23.4948L42.2544 26.5052L53.683 36.5052L56.317 33.4948Z" fill="#04538B"/>
</svg>
