<svg width="70" height="70" viewBox="0 0 70 70" fill="none" xmlns="http://www.w3.org/2000/svg">
<rect width="70" height="70" rx="5" fill="#E4E3E3"/>
<path d="M50.625 25C50.1162 25.0001 49.6151 25.1245 49.1653 25.3623C48.7155 25.6001 48.3305 25.9441 48.0439 26.3645C47.7572 26.7849 47.5776 27.2689 47.5205 27.7745C47.4634 28.28 47.5307 28.7919 47.7164 29.2656L41.1406 35.8414C40.4076 35.5528 39.5924 35.5528 38.8594 35.8414L34.1586 31.1406C34.3447 30.6668 34.4123 30.1547 34.3554 29.6488C34.2986 29.143 34.119 28.6587 33.8323 28.238C33.5456 27.8174 33.1605 27.4731 32.7104 27.2352C32.2604 26.9973 31.759 26.8729 31.25 26.8729C30.7409 26.8729 30.2396 26.9973 29.7895 27.2352C29.3395 27.4731 28.9544 27.8174 28.6677 28.238C28.381 28.6587 28.2014 29.143 28.1445 29.6488C28.0877 30.1547 28.1552 30.6668 28.3414 31.1406L20.5156 38.9664C19.8473 38.7042 19.109 38.6802 18.425 38.8983C17.741 39.1164 17.153 39.5633 16.7598 40.164C16.3666 40.7647 16.1922 41.4824 16.2659 42.1965C16.3397 42.9107 16.657 43.5776 17.1647 44.0853C17.6723 44.5929 18.3393 44.9103 19.0534 44.984C19.7676 45.0578 20.4853 44.8834 21.086 44.4902C21.6866 44.097 22.1336 43.5089 22.3517 42.8249C22.5698 42.1409 22.5457 41.4027 22.2836 40.7344L30.1094 32.9086C30.8424 33.1971 31.6576 33.1971 32.3906 32.9086L37.0914 37.6094C36.9052 38.0832 36.8377 38.5953 36.8945 39.1011C36.9514 39.607 37.131 40.0913 37.4177 40.512C37.7044 40.9326 38.0895 41.2769 38.5395 41.5148C38.9896 41.7527 39.4909 41.877 40 41.877C40.509 41.877 41.0104 41.7527 41.4604 41.5148C41.9105 41.2769 42.2956 40.9326 42.5823 40.512C42.869 40.0913 43.0486 39.607 43.1054 39.1011C43.1623 38.5953 43.0947 38.0832 42.9086 37.6094L49.4844 31.0336C49.9123 31.2017 50.372 31.2733 50.8308 31.2434C51.2895 31.2134 51.736 31.0826 52.1384 30.8602C52.5408 30.6379 52.8892 30.3295 53.1587 29.957C53.4282 29.5846 53.6123 29.1572 53.6977 28.7055C53.7831 28.2537 53.7677 27.7887 53.6528 27.3436C53.5378 26.8985 53.326 26.4842 53.0326 26.1303C52.7391 25.7764 52.3712 25.4916 51.955 25.2962C51.5389 25.1008 51.0847 24.9997 50.625 25Z" fill="#04538B"/>
</svg>
