<svg width="70" height="70" viewBox="0 0 70 70" fill="none" xmlns="http://www.w3.org/2000/svg">
<rect width="70" height="70" rx="5" fill="#E4E3E3"/>
<path d="M45.7711 29.8437C45.3013 30.3105 44.6658 30.5725 44.0035 30.5725C43.3412 30.5725 42.7058 30.3105 42.2359 29.8437L40.1601 27.7679C39.6929 27.2982 39.4306 26.6625 39.4306 26C39.4306 25.3374 39.6929 24.7018 40.1601 24.232L44.8586 19.5312C44.8679 19.5223 44.8748 19.5112 44.8788 19.4989C44.8827 19.4866 44.8836 19.4736 44.8813 19.4609C44.8789 19.4482 44.8735 19.4363 44.8655 19.4262C44.8574 19.4161 44.847 19.4082 44.8351 19.4031C41.8023 18.1031 37.8703 18.7656 35.3734 21.2445C32.9844 23.6156 32.8484 27.182 33.7234 30.2945C33.8478 30.7369 33.8474 31.2051 33.7225 31.6473C33.5976 32.0896 33.353 32.4887 33.0156 32.8008L20 44.6875C19.616 45.0279 19.3057 45.4434 19.0881 45.9082C18.8706 46.373 18.7504 46.8774 18.735 47.3904C18.7196 47.9034 18.8093 48.4141 18.9986 48.8912C19.1879 49.3682 19.4727 49.8015 19.8356 50.1644C20.1985 50.5273 20.6318 50.8121 21.1088 51.0014C21.5859 51.1906 22.0966 51.2803 22.6095 51.2649C23.1225 51.2495 23.6269 51.1294 24.0918 50.9118C24.5566 50.6943 24.972 50.384 25.3125 50L37.3328 36.9531C37.6409 36.6214 38.0334 36.3798 38.4683 36.2541C38.9032 36.1285 39.3641 36.1235 39.8016 36.2398C42.8906 37.0672 46.4062 36.9117 48.7641 34.5843C51.3023 32.0843 51.85 27.6656 50.6195 25.1367C50.614 25.1256 50.6059 25.1161 50.5959 25.1087C50.586 25.1014 50.5744 25.0966 50.5622 25.0946C50.55 25.0926 50.5375 25.0935 50.5257 25.0973C50.514 25.1011 50.5033 25.1077 50.4945 25.1164L45.7711 29.8437Z" stroke="#04538B" stroke-width="2" stroke-miterlimit="10" stroke-linecap="round"/>
<path d="M22.5 48.75C23.1904 48.75 23.75 48.1904 23.75 47.5C23.75 46.8096 23.1904 46.25 22.5 46.25C21.8096 46.25 21.25 46.8096 21.25 47.5C21.25 48.1904 21.8096 48.75 22.5 48.75Z" fill="#04538B"/>
</svg>
