<svg width="70" height="70" viewBox="0 0 70 70" fill="none" xmlns="http://www.w3.org/2000/svg">
<rect width="70" height="70" rx="5" fill="#E4E3E3"/>
<path d="M45 41.25C44.3266 41.2497 43.6601 41.386 43.0408 41.6505C42.4215 41.915 41.8623 42.3023 41.3969 42.789L29.8344 36.2836C30.0583 35.4425 30.0583 34.5574 29.8344 33.7164L41.3969 27.2109C42.2388 28.0838 43.3702 28.6198 44.579 28.7185C45.7878 28.8171 46.991 28.4717 47.9634 27.7468C48.9358 27.0219 49.6105 25.9674 49.8611 24.7808C50.1118 23.5942 49.9212 22.3569 49.3251 21.3007C48.729 20.2445 47.7682 19.4419 46.6228 19.0432C45.4774 18.6446 44.2259 18.6772 43.1029 19.135C41.9798 19.5928 41.0622 20.4444 40.5219 21.5302C39.9816 22.6161 39.8558 23.8616 40.168 25.0336L28.6055 31.539C27.9148 30.8189 27.0245 30.3219 26.049 30.1119C25.0736 29.902 24.0576 29.9886 23.1318 30.3608C22.206 30.733 21.4128 31.3737 20.8541 32.2004C20.2954 33.0272 19.9969 34.0022 19.9969 35C19.9969 35.9978 20.2954 36.9727 20.8541 37.7995C21.4128 38.6262 22.206 39.2669 23.1318 39.6391C24.0576 40.0113 25.0736 40.098 26.049 39.888C27.0245 39.678 27.9148 39.181 28.6055 38.4609L40.168 44.9664C39.8999 45.9756 39.9545 47.0435 40.3242 48.0202C40.694 48.9968 41.3602 49.8332 42.2294 50.4119C43.0986 50.9906 44.1273 51.2827 45.1709 51.2471C46.2146 51.2114 47.2209 50.8499 48.0487 50.2133C48.8764 49.5767 49.4841 48.6968 49.7864 47.6972C50.0886 46.6977 50.0703 45.6286 49.7341 44.6399C49.3978 43.6513 48.7604 42.7927 47.9114 42.1847C47.0624 41.5768 46.0443 41.2499 45 41.25Z" fill="#04538B"/>
</svg>
